<?xml version="1.0" encoding="utf-8"?>
<!-- Generator: Adobe Illustrator 19.0.1, SVG Export Plug-In . SVG Version: 6.00 Build 0)  -->
<svg version="1.1" id="Слой_1" xmlns="http://www.w3.org/2000/svg" xmlns:xlink="http://www.w3.org/1999/xlink" x="0px" y="0px"
	 viewBox="0 0 16 16" style="enable-background:new 0 0 16 16;" xml:space="preserve">
<style type="text/css">
	.st0{fill:#EBB81F;}
</style>
<path class="st0" d="M14.2,15.1C14.2,15.1,14.2,15.1,14.2,15.1l0-12.7L11.3,0L6.8,1.5v13.2c-0.4,0-0.7,0-1.1,0V7.3L3.9,5.8L1.1,6.8
	V15c0,0,0,0,0,0v1h13V15.1z M1.7,14.2l0-0.2l1.6-0.4l0,0.2L1.7,14.2z M1.7,12.4l0-0.2l1.6-0.4l0,0.2L1.7,12.4z M1.7,10.6l0-0.2
	L3.3,10l0,0.2L1.7,10.6z M1.7,8.8l0-0.2l1.6-0.4l0,0.2L1.7,8.8z M5.3,14.9H3.9l0-8.1l1.4,1.1V14.9z M7.8,13.1l-0.1-0.3l2.3-0.6
	l0.1,0.3L7.8,13.1z M7.8,11l-0.1-0.3l2.3-0.6l0.1,0.3L7.8,11z M7.8,8.9L7.7,8.7L10,8.1l0.1,0.3L7.8,8.9z M7.8,6.8L7.7,6.6L10,6
	l0.1,0.3L7.8,6.8z M7.8,4.7L7.7,4.5L10,3.9l0.1,0.3L7.8,4.7z M13.5,14.9l-2.2-0.3l0-13.2l2.2,1.8L13.5,14.9z"/>
</svg>
